<?xml version="1.0" encoding="UTF-8" standalone="no"?>
<svg
   xmlns:dc="http://purl.org/dc/elements/1.1/"
   xmlns:cc="http://creativecommons.org/ns#"
   xmlns:rdf="http://www.w3.org/1999/02/22-rdf-syntax-ns#"
   xmlns:svg="http://www.w3.org/2000/svg"
   xmlns="http://www.w3.org/2000/svg"
   xmlns:sodipodi="http://sodipodi.sourceforge.net/DTD/sodipodi-0.dtd"
   xmlns:inkscape="http://www.inkscape.org/namespaces/inkscape"
   width="64"
   height="64"
   viewBox="0 0 16.933333 16.933334"
   version="1.1"
   id="svg8"
   inkscape:version="1.0 (4035a4fb49, 2020-05-01)"
   sodipodi:docname="icons.svg">
  <defs
     id="defs2" />
  <sodipodi:namedview
     id="base"
     pagecolor="#292929"
     bordercolor="#666666"
     borderopacity="1.0"
     inkscape:pageopacity="0"
     inkscape:pageshadow="2"
     inkscape:zoom="11.2"
     inkscape:cx="27.115226"
     inkscape:cy="30.691242"
     inkscape:document-units="mm"
     inkscape:current-layer="layer1"
     inkscape:document-rotation="0"
     showgrid="true"
     units="px"
     inkscape:window-width="1920"
     inkscape:window-height="1016"
     inkscape:window-x="0"
     inkscape:window-y="27"
     inkscape:window-maximized="1"
     inkscape:snap-bbox="true"
     inkscape:bbox-nodes="false"
     inkscape:snap-bbox-midpoints="true"
     inkscape:pagecheckerboard="true">
    <inkscape:grid
       empopacity="0.25098039"
       empcolor="#ffffff"
       opacity="0.1254902"
       color="#ffffff"
       type="xygrid"
       id="grid851"
       empspacing="16" />
  </sodipodi:namedview>
  <metadata
     id="metadata5">
    <rdf:RDF>
      <cc:Work
         rdf:about="">
        <dc:format>image/svg+xml</dc:format>
        <dc:type
           rdf:resource="http://purl.org/dc/dcmitype/StillImage" />
        <dc:title></dc:title>
      </cc:Work>
    </rdf:RDF>
  </metadata>
  <g
     inkscape:label="Layer 1"
     inkscape:groupmode="layer"
     id="layer1">
    <g
       id="g863"
       style="stroke:#000000;stroke-width:0.529167;stroke-linecap:round;stroke-linejoin:round;stroke-miterlimit:4;stroke-dasharray:none;stroke-opacity:1">
      <path
         id="path853"
         d="M 0.52916666,0.52916666 3.7041666,3.7041666"
         style="fill:none;stroke:#000000;stroke-width:0.529167;stroke-linecap:round;stroke-linejoin:round;stroke-miterlimit:4;stroke-dasharray:none;stroke-opacity:1" />
      <path
         id="path855"
         d="M 3.7041666,0.52916666 0.52916666,3.7041666"
         style="fill:none;stroke:#000000;stroke-width:0.529167;stroke-linecap:round;stroke-linejoin:round;stroke-miterlimit:4;stroke-dasharray:none;stroke-opacity:1" />
    </g>
    <circle
       style="fill:none;stroke:#000000;stroke-width:0.529167;stroke-linecap:round;stroke-linejoin:round;stroke-miterlimit:4;stroke-dasharray:none;stroke-opacity:1"
       id="path865"
       cx="5.8208332"
       cy="1.5875"
       r="1.0583333" />
    <path
       style="fill:none;stroke:#000000;stroke-width:0.529167;stroke-linecap:round;stroke-linejoin:miter;stroke-miterlimit:4;stroke-dasharray:none;stroke-opacity:1"
       d="M 7.9374999,3.7041666 6.6145832,2.38125"
       id="path867" />
    <path
       d="M 1.5616618,5.2916864 A 1.0583327,1.0583335 0 0 0 0.52916653,6.3500198 1.0583327,1.0583335 0 0 0 1.5874999,7.408353 1.0583327,1.0583335 0 0 0 2.6458331,6.3500198 1.0583327,1.0583335 0 0 0 1.5874999,5.2916864 a 1.0583327,1.0583335 0 0 0 -0.025838,0 z m 2.6458333,0 A 1.0583327,1.0583336 0 0 0 3.1749999,6.3500198 1.0583327,1.0583336 0 0 0 4.2333331,7.408353 1.0583327,1.0583336 0 0 0 5.2916665,6.3500198 1.0583327,1.0583336 0 0 0 4.2333331,5.2916864 a 1.0583327,1.0583336 0 0 0 -0.025838,0 z m 2.6458332,0 A 1.0583327,1.0583336 0 0 0 5.8208331,6.3500198 1.0583327,1.0583336 0 0 0 6.8791665,7.408353 1.0583327,1.0583336 0 0 0 7.9374993,6.3500198 1.0583327,1.0583336 0 0 0 6.8791665,5.2916864 a 1.0583327,1.0583336 0 0 0 -0.025838,0 z"
       style="fill:#ffffff;fill-opacity:1;stroke:none;stroke-width:2.11666;stroke-linecap:round;stroke-linejoin:round;stroke-miterlimit:4;stroke-dasharray:none;stroke-dashoffset:3;stroke-opacity:1"
       id="path1036" />
    <path
       id="path859"
       d="M 9.5250007,1.587511 10.583334,2.6458444 11.641668,1.587511"
       style="fill:none;stroke:#ffffff;stroke-width:0.529167;stroke-linecap:round;stroke-linejoin:round;stroke-miterlimit:4;stroke-dasharray:none;stroke-opacity:1" />
    <path
       sodipodi:nodetypes="ccccssccccc"
       d="m 1.222375,10.326846 c -0.70682886,0.726021 -0.69901368,1.885277 0.01754,2.601702 0.00581,0.0059 0.011654,0.01173 0.01754,0.01754 l 2.9758791,2.975879 2.9934187,-2.993419 c 0.7232835,-0.723283 0.7232835,-1.895958 0,-2.619241 -0.7232835,-0.723284 -1.8959579,-0.723284 -2.6192414,0 -0.155773,0.155848 -0.282485,0.338244 -0.3741773,0.53861 -0.091692,-0.200366 -0.2184043,-0.382762 -0.3741773,-0.53861 -0.7232835,-0.723284 -1.8959579,-0.723284 -2.6192414,0 -0.00589,0.0058 -0.011732,0.01165 -0.01754,0.01754 z"
       style="fill:none;stroke:#ffffff;stroke-width:0.52916667;stroke-linecap:round;stroke-linejoin:round;stroke-miterlimit:4;stroke-dasharray:none;stroke-dashoffset:3;stroke-opacity:1"
       id="path861" />
    <path
       id="path861-6"
       style="fill:#ff0000;stroke:#ff8080;stroke-width:0.529167;stroke-linecap:round;stroke-linejoin:round;stroke-miterlimit:4;stroke-dasharray:none;stroke-dashoffset:3;stroke-opacity:1;fill-opacity:1"
       d="m 9.6890408,10.279877 c -0.7068289,0.726021 -0.6990137,1.885277 0.01754,2.601703 0.00581,0.0059 0.011654,0.01173 0.01754,0.01754 L 12.7,15.875 15.693419,12.881581 c 0.723283,-0.723284 0.723283,-1.895959 0,-2.619242 -0.723284,-0.7232837 -1.895958,-0.7232837 -2.619242,0 -0.155773,0.155848 -0.282485,0.338244 -0.374177,0.53861 -0.09169,-0.200366 -0.218404,-0.382762 -0.374178,-0.53861 -0.723283,-0.7232837 -1.895957,-0.7232837 -2.6192409,0 -0.00589,0.0058 -0.011732,0.01165 -0.01754,0.01754 z"
       sodipodi:nodetypes="ccccssccccc" />
  </g>
</svg>
