<?xml version="1.0" encoding="UTF-8" standalone="no"?>
<svg
   xmlns:dc="http://purl.org/dc/elements/1.1/"
   xmlns:cc="http://creativecommons.org/ns#"
   xmlns:rdf="http://www.w3.org/1999/02/22-rdf-syntax-ns#"
   xmlns:svg="http://www.w3.org/2000/svg"
   xmlns="http://www.w3.org/2000/svg"
   xmlns:xlink="http://www.w3.org/1999/xlink"
   xmlns:sodipodi="http://sodipodi.sourceforge.net/DTD/sodipodi-0.dtd"
   xmlns:inkscape="http://www.inkscape.org/namespaces/inkscape"
   width="512"
   height="128"
   viewBox="0 0 135.46667 33.866665"
   version="1.1"
   id="svg8"
   inkscape:version="1.0.1 (3bc2e813f5, 2020-09-07)"
   sodipodi:docname="splash.svg"
   inkscape:export-filename="/home/jwestman/Documents/hourglass/data/splash.png"
   inkscape:export-xdpi="96"
   inkscape:export-ydpi="96">
  <defs
     id="defs2" />
  <sodipodi:namedview
     id="base"
     pagecolor="#ffffff"
     bordercolor="#666666"
     borderopacity="1.0"
     inkscape:pageopacity="0.0"
     inkscape:pageshadow="2"
     inkscape:zoom="1.8101934"
     inkscape:cx="229.61425"
     inkscape:cy="125.03016"
     inkscape:document-units="mm"
     inkscape:current-layer="layer1"
     showgrid="false"
     units="px"
     inkscape:window-width="1920"
     inkscape:window-height="1016"
     inkscape:window-x="0"
     inkscape:window-y="27"
     inkscape:window-maximized="1"
     inkscape:document-rotation="0" />
  <metadata
     id="metadata5">
    <rdf:RDF>
      <cc:Work
         rdf:about="">
        <dc:format>image/svg+xml</dc:format>
        <dc:type
           rdf:resource="http://purl.org/dc/dcmitype/StillImage" />
        <dc:title></dc:title>
      </cc:Work>
    </rdf:RDF>
  </metadata>
  <g
     inkscape:label="Layer 1"
     inkscape:groupmode="layer"
     id="layer1"
     transform="translate(0,-229.26669)">
    <image
       sodipodi:absref="/home/jwestman/Documents/hourglass/data/icon.png"
       xlink:href="icon.png"
       width="30.682392"
       height="30.682392"
       preserveAspectRatio="none"
       style="image-rendering:optimizeSpeed"
       id="image4770"
       x="0.73136818"
       y="230.85883" />
    <g
       aria-label="Hourglass"
       style="font-style:normal;font-variant:normal;font-weight:normal;font-stretch:normal;font-size:10.5833px;line-height:1.25;font-family:'Passion One';-inkscape-font-specification:'Passion One, Normal';font-variant-ligatures:normal;font-variant-caps:normal;font-variant-numeric:normal;font-feature-settings:normal;text-align:start;letter-spacing:0px;word-spacing:0px;writing-mode:lr-tb;text-anchor:start;fill:#ffffff;fill-opacity:1;stroke:none;stroke-width:0.264583"
       id="text840"
       transform="matrix(2.6588692,0,0,2.6588692,-107.35079,-430.93428)">
      <path
         d="m 57.795943,257.68216 h -1.799167 v -2.48708 h -1.23825 v 2.48708 h -1.820333 v -6.57225 h 1.820333 v 2.58233 h 1.23825 v -2.58233 h 1.799167 z"
         style="font-style:normal;font-variant:normal;font-weight:normal;font-stretch:normal;font-size:10.5833px;font-family:'Passion One';-inkscape-font-specification:'Passion One, Normal';font-variant-ligatures:normal;font-variant-caps:normal;font-variant-numeric:normal;font-feature-settings:normal;text-align:start;writing-mode:lr-tb;text-anchor:start;fill:#ffffff;fill-opacity:1;stroke-width:0.264583"
         id="path842"
         inkscape:connector-curvature="0" />
      <path
         d="m 58.452102,255.13158 q 0,-1.397 0.529167,-2.02142 0.53975,-0.62442 1.672166,-0.62442 1.143,0 1.661584,0.61384 0.518583,0.61383 0.518583,2.02141 0,1.397 -0.508,2.032 -0.508,0.635 -1.661583,0.635 -1.153584,0 -1.68275,-0.635 -0.529167,-0.635 -0.529167,-2.02141 z m 2.54,-1.00542 q -0.0635,-0.21167 -0.338667,-0.21167 -0.275166,0 -0.34925,0.21167 -0.07408,0.21167 -0.07408,0.889 v 0.254 q 0,0.75142 0.07408,0.97367 0.07408,0.22225 0.338667,0.22225 0.275167,0 0.34925,-0.22225 0.07408,-0.22225 0.07408,-0.91017 v -0.30692 q 0,-0.68791 -0.07408,-0.89958 z"
         style="font-style:normal;font-variant:normal;font-weight:normal;font-stretch:normal;font-size:10.5833px;font-family:'Passion One';-inkscape-font-specification:'Passion One, Normal';font-variant-ligatures:normal;font-variant-caps:normal;font-variant-numeric:normal;font-feature-settings:normal;text-align:start;writing-mode:lr-tb;text-anchor:start;fill:#ffffff;fill-opacity:1;stroke-width:0.264583"
         id="path844"
         inkscape:connector-curvature="0" />
      <path
         d="m 64.643334,257.78799 q -1.259416,0 -1.259416,-1.397 v -3.77825 h 1.799166 v 3.34434 q 0,0.26458 0.232834,0.26458 0.296333,0 0.497416,-0.14817 v -3.46075 h 1.778 v 5.04825 h -1.68275 v -0.37041 h -0.04233 q -0.582083,0.49741 -1.322917,0.49741 z"
         style="font-style:normal;font-variant:normal;font-weight:normal;font-stretch:normal;font-size:10.5833px;font-family:'Passion One';-inkscape-font-specification:'Passion One, Normal';font-variant-ligatures:normal;font-variant-caps:normal;font-variant-numeric:normal;font-feature-settings:normal;text-align:start;writing-mode:lr-tb;text-anchor:start;fill:#ffffff;fill-opacity:1;stroke-width:0.264583"
         id="path846"
         inkscape:connector-curvature="0" />
      <path
         d="m 70.083157,254.83524 v 2.84692 h -1.756834 v -5.06942 h 1.545167 l 0.105833,0.30692 h 0.04233 q 0.243416,-0.27517 0.486833,-0.34925 0.254,-0.0847 0.814917,-0.0847 l -0.07408,1.69334 H 70.76049 q -0.41275,0 -0.550333,0.127 -0.127,0.127 -0.127,0.52916 z"
         style="font-style:normal;font-variant:normal;font-weight:normal;font-stretch:normal;font-size:10.5833px;font-family:'Passion One';-inkscape-font-specification:'Passion One, Normal';font-variant-ligatures:normal;font-variant-caps:normal;font-variant-numeric:normal;font-feature-settings:normal;text-align:start;writing-mode:lr-tb;text-anchor:start;fill:#ffffff;fill-opacity:1;stroke-width:0.264583"
         id="path848"
         inkscape:connector-curvature="0" />
      <path
         d="m 73.173487,258.14783 h 1.090083 q 0.1905,0 0.1905,-0.16934 v -0.0423 q 0,-0.15875 -0.1905,-0.15875 h -1.090083 q -0.169334,0 -0.169334,0.16933 v 0.0423 q 0,0.15875 0.169334,0.15875 z m 0.423333,-5.66209 h 2.497667 v 1.18534 h -0.762 v 0.0529 q 0.338666,0.29634 0.338666,0.77259 0,1.69333 -1.915583,1.69333 h -0.508 q -0.1905,0 -0.1905,0.17992 0,0.16933 0.179917,0.16933 h 1.439333 q 1.217083,0 1.217083,1.05833 0,0.86784 -0.582083,1.24884 -0.582083,0.39158 -1.608667,0.39158 -1.026583,0 -1.55575,-0.22225 -0.518583,-0.21167 -0.518583,-0.80433 0,-0.32809 0.41275,-0.55034 v -0.0423 q -0.518583,-0.28575 -0.518583,-0.8255 0,-0.635 0.814916,-0.96308 -0.381,-0.27517 -0.5715,-0.635 -0.179916,-0.37042 -0.179916,-0.97367 0,-0.83608 0.53975,-1.28058 0.550333,-0.45509 1.471083,-0.45509 z m 0.465667,2.032 q 0,-0.33866 -0.08467,-0.48683 -0.07408,-0.15875 -0.28575,-0.15875 -0.211667,0 -0.296333,0.15875 -0.07408,0.14817 -0.07408,0.46567 0,0.64558 0.381,0.64558 0.359834,0 0.359834,-0.62442 z"
         style="font-style:normal;font-variant:normal;font-weight:normal;font-stretch:normal;font-size:10.5833px;font-family:'Passion One';-inkscape-font-specification:'Passion One, Normal';font-variant-ligatures:normal;font-variant-caps:normal;font-variant-numeric:normal;font-feature-settings:normal;text-align:start;writing-mode:lr-tb;text-anchor:start;fill:#ffffff;fill-opacity:1;stroke-width:0.264583"
         id="path850"
         inkscape:connector-curvature="0" />
      <path
         d="m 76.401393,256.51799 v -5.61975 h 1.74625 v 5.05884 q 0,0.17991 0.07408,0.254 0.08467,0.0741 0.28575,0.0741 l -0.137583,1.50283 h -0.582084 q -0.6985,0 -1.04775,-0.28575 -0.338666,-0.29633 -0.338666,-0.98425 z"
         style="font-style:normal;font-variant:normal;font-weight:normal;font-stretch:normal;font-size:10.5833px;font-family:'Passion One';-inkscape-font-specification:'Passion One, Normal';font-variant-ligatures:normal;font-variant-caps:normal;font-variant-numeric:normal;font-feature-settings:normal;text-align:start;writing-mode:lr-tb;text-anchor:start;fill:#ffffff;fill-opacity:1;stroke-width:0.264583"
         id="path852"
         inkscape:connector-curvature="0" />
      <path
         d="m 82.68789,253.93566 -0.05292,2.19075 q 0,0.20108 0.09525,0.27517 0.105833,0.0635 0.34925,0.0635 l -0.15875,1.28058 q -0.613833,0.0423 -0.677333,0.0423 -0.783167,0 -0.994833,-0.53975 h -0.05292 q -0.391583,0.53975 -1.2065,0.53975 -0.624417,0 -0.963083,-0.40216 -0.328084,-0.40217 -0.328084,-1.10067 0,-0.87842 0.53975,-1.21708 0.550334,-0.33867 1.725084,-0.4445 v -0.254 q 0,-0.29634 -0.296334,-0.29634 -0.508,0 -1.5875,0.30692 l -0.264583,-1.54517 q 1.354667,-0.34925 2.25425,-0.34925 0.899583,0 1.259416,0.34925 0.359834,0.34925 0.359834,1.10067 z m -2.042583,2.61408 q 0.391583,0 0.391583,-0.41275 v -0.51858 q -0.391583,0.0529 -0.560917,0.16933 -0.15875,0.10584 -0.15875,0.37042 0,0.39158 0.328084,0.39158 z"
         style="font-style:normal;font-variant:normal;font-weight:normal;font-stretch:normal;font-size:10.5833px;font-family:'Passion One';-inkscape-font-specification:'Passion One, Normal';font-variant-ligatures:normal;font-variant-caps:normal;font-variant-numeric:normal;font-feature-settings:normal;text-align:start;writing-mode:lr-tb;text-anchor:start;fill:#ffffff;fill-opacity:1;stroke-width:0.264583"
         id="path854"
         inkscape:connector-curvature="0" />
      <path
         d="m 83.206461,254.11558 q 0,-0.77259 0.465666,-1.19592 0.47625,-0.43392 1.30175,-0.43392 0.8255,0 1.672167,0.21167 l -0.179917,1.47108 q -1.0795,-0.24341 -1.449916,-0.24341 -0.22225,0 -0.22225,0.17991 0,0.11642 0.243416,0.21167 0.846667,0.30692 1.27,0.6985 0.433917,0.39158 0.433917,1.17475 0,0.78317 -0.402167,1.19592 -0.402166,0.40216 -1.23825,0.40216 -0.8255,0 -1.651,-0.21166 l 0.116417,-1.42875 q 1.058333,0.28575 1.36525,0.28575 0.3175,0 0.3175,-0.14817 0,-0.14817 -0.232833,-0.23283 -0.941917,-0.35984 -1.375834,-0.762 -0.433916,-0.41275 -0.433916,-1.17475 z"
         style="font-style:normal;font-variant:normal;font-weight:normal;font-stretch:normal;font-size:10.5833px;font-family:'Passion One';-inkscape-font-specification:'Passion One, Normal';font-variant-ligatures:normal;font-variant-caps:normal;font-variant-numeric:normal;font-feature-settings:normal;text-align:start;writing-mode:lr-tb;text-anchor:start;fill:#ffffff;fill-opacity:1;stroke-width:0.264583"
         id="path856"
         inkscape:connector-curvature="0" />
      <path
         d="m 86.825952,254.11558 q 0,-0.77259 0.465667,-1.19592 0.47625,-0.43392 1.30175,-0.43392 0.8255,0 1.672166,0.21167 l -0.179916,1.47108 q -1.0795,-0.24341 -1.449917,-0.24341 -0.22225,0 -0.22225,0.17991 0,0.11642 0.243417,0.21167 0.846667,0.30692 1.27,0.6985 0.433916,0.39158 0.433916,1.17475 0,0.78317 -0.402166,1.19592 -0.402167,0.40216 -1.23825,0.40216 -0.8255,0 -1.651,-0.21166 l 0.116417,-1.42875 q 1.058333,0.28575 1.36525,0.28575 0.3175,0 0.3175,-0.14817 0,-0.14817 -0.232834,-0.23283 -0.941916,-0.35984 -1.375833,-0.762 -0.433917,-0.41275 -0.433917,-1.17475 z"
         style="font-style:normal;font-variant:normal;font-weight:normal;font-stretch:normal;font-size:10.5833px;font-family:'Passion One';-inkscape-font-specification:'Passion One, Normal';font-variant-ligatures:normal;font-variant-caps:normal;font-variant-numeric:normal;font-feature-settings:normal;text-align:start;writing-mode:lr-tb;text-anchor:start;fill:#ffffff;fill-opacity:1;stroke-width:0.264583"
         id="path858"
         inkscape:connector-curvature="0" />
    </g>
  </g>
</svg>
